<?xml version="1.0"?>
<svg xmlns="http://www.w3.org/2000/svg" viewBox="0 0 24 24">
    <path style="text-indent:0;text-align:start;line-height:normal;text-transform:none;block-progression:tb;-inkscape-font-specification:Bitstream Vera Sans" d="M 12 2 C 6.4889972 2 2 6.4889972 2 12 C 2 17.511003 6.4889972 22 12 22 C 17.511003 22 22 17.511003 22 12 C 22 6.4889972 17.511003 2 12 2 z M 12 4 C 16.430123 4 20 7.5698774 20 12 C 20 16.430123 16.430123 20 12 20 C 7.5698774 20 4 16.430123 4 12 C 4 7.5698774 7.5698774 4 12 4 z M 12 10 C 10.895431 10 10 10.895431 10 12 C 10 13.104569 10.895431 14 12 14 C 13.104569 14 14 13.104569 14 12 C 14 10.895431 13.104569 10 12 10 z" overflow="visible" font-family="Bitstream Vera Sans"/>
</svg>
